<svg data-v-0dd9719b="" version="1.0" xmlns="http://www.w3.org/2000/svg" xmlns:xlink="http://www.w3.org/1999/xlink" width="100%" height="100%" viewBox="0 0 340.000000 250.000000" preserveAspectRatio="xMidYMid meet" color-interpolation-filters="sRGB" style="margin: auto;"> <rect data-v-0dd9719b="" x="0" y="0" width="100%" height="100%" fill="#fff" fill-opacity="1" class="background"></rect> <rect data-v-0dd9719b="" x="0" y="0" width="100%" height="100%" fill="url(#watermark)" fill-opacity="1" class="watermarklayer"></rect> <g data-v-0dd9719b="" fill="#ffd700" class="icon-text-wrapper icon-svg-group iconsvg" transform="translate(48.30000305175781,95)"><g class="iconsvg-imagesvg" transform="translate(0,0)"><g><rect fill="#ffd700" fill-opacity="0" stroke-width="2" x="0" y="0" width="60" height="60" class="image-rect"></rect> <svg x="0" y="0" width="60" height="60" filtersec="colorsb4670813212" class="image-svg-svg primary" style="overflow: visible;"><svg version="1.1" id="图层_1" xmlns="http://www.w3.org/2000/svg" xmlns:xlink="http://www.w3.org/1999/xlink" x="0px" y="0px" viewBox="1 1.5099983215332031 104.49000549316406 104.49000549316406" enable-background="new 0 0 106 107" xml:space="preserve">
<g>
	<path fill="#F29600" d="M53.18,11.76c0.02,0,0.04,0,0.06,0c23.16,0,42,18.84,42,42c0,23.16-18.84,41.99-42,41.99
		c-23.15,0-42-18.84-42-41.99l0,0H1l0,0C1,82.57,24.43,106,53.24,106c28.81,0,52.25-23.43,52.25-52.24
		c0-28.81-23.44-52.25-52.25-52.25c-0.02,0-0.04,0-0.06,0V11.76z"></path>
	<path fill="#FFD700" d="M53.3,81.22c-0.02,0-0.04,0-0.06,0c-15.14,0-27.46-12.32-27.46-27.46c0-15.15,12.32-27.46,27.46-27.46
		c15.15,0,27.47,12.32,27.47,27.46l0,0h10.24l0,0c0-20.8-16.92-37.71-37.71-37.71S15.53,32.96,15.53,53.76
		c0,20.79,16.92,37.71,37.71,37.71c0.02,0,0.04-0.01,0.06-0.01V81.22z"></path>
	<path fill="#F29600" d="M69.3,37.7c-4.29-4.29-9.99-6.66-16.06-6.66V41.3c6.88,0,12.46,5.59,12.46,12.46
		c0,6.87-5.58,12.45-12.46,12.45c-6.87,0-12.46-5.59-12.46-12.45c0-0.02,0-0.04,0-0.07H30.54c0,0.02,0,0.04,0,0.07
		c0,12.52,10.18,22.7,22.7,22.7c6.07,0,11.77-2.36,16.06-6.65c4.29-4.29,6.65-9.99,6.65-16.05C75.95,47.69,73.59,41.99,69.3,37.7z"></path>
</g>
</svg></svg> <!----></g></g> <g transform="translate(67,18.10999870300293)"><g data-gra="path-name" fill-rule="" class="tp-name iconsvg-namesvg"><g transform="scale(1)"><g><path d="M8.43 0.33C15.59 0.33 17.82-2.36 17.82-6.96 17.82-11.16 17.12-12.99 11.36-14.49 8.49-15.22 7.99-15.46 7.99-16.52 7.99-17.62 8.83-18.12 10.96-18.12 12.79-18.12 15.69-17.69 16.65-17.32L16.65-22.62C15.36-23.05 13.56-23.45 10.66-23.45 5.13-23.45 1.6-21.72 1.6-16.25 1.6-12.16 2.8-10.56 7.86-9.39 10.76-8.69 11.19-8.13 11.19-7.16 11.19-5.73 10.83-5.26 8.06-5.26 6-5.26 3.3-5.7 1.77-6.13L1.77-0.43C3.4-0.03 5.86 0.33 8.43 0.33ZM35.71-23.12L35.71-15.02 28.38-15.02 28.38-23.12 21.75-23.12 21.75 0 28.38 0 28.38-9.49 35.71-9.49 35.71 0 42.34 0 42.34-23.12ZM57.02 0.33C63.52 0.33 67.45-1.93 67.45-7.83L67.45-23.12 60.85-23.12 60.85-8.29C60.85-7.06 60.32-5.33 57.02-5.33 53.83-5.33 53.26-6.79 53.26-8.29L53.26-23.12 46.63-23.12 46.63-7.83C46.63-1.33 50.53 0.33 57.02 0.33ZM71.78 0L78.31 0 78.31-15.46 78.51-15.46 84 0 93.23 0 93.23-23.12 86.77-23.12 86.77-8.63 86.57-8.63 81.77-23.12 71.78-23.12ZM95.7 0L103.52 0 107.52-7.66 107.72-7.66 111.58 0 119.54 0 112.65-11.96 119.31-23.12 111.52-23.12 107.82-15.75 107.62-15.75 103.86-23.12 96.13-23.12 102.76-11.76ZM122.04 0L128.67 0 128.67-23.12 122.04-23.12ZM133.07 0L139.6 0 139.6-15.46 139.8-15.46 145.29 0 154.52 0 154.52-23.12 148.06-23.12 148.06-8.63 147.86-8.63 143.06-23.12 133.07-23.12ZM170.11 0.33C172.94 0.33 176.24-0.2 178-0.73L178-14.09 168.51-14.09 168.51-8.56 171.91-8.56 171.91-5.2C171.41-5.16 171.34-5.16 170.44-5.16 166.31-5.16 165.64-6.73 165.64-11.56 165.64-16.19 166.88-17.85 170.74-17.85 172.51-17.85 174.64-17.55 176.5-16.92L176.5-22.68C175.14-23.12 172.41-23.45 170.17-23.45 162.88-23.45 158.32-20.48 158.32-11.56 158.32-1.87 162.68 0.33 170.11 0.33Z" transform="translate(-1.600000023841858, 23.450000762939453)"></path></g> <!----> <!----> <!----> <!----> <!----> <!----> <!----></g></g> <!----></g></g></svg>